<?xml version="1.0" encoding="UTF-8"?>
<svg width="24px" height="24px" viewBox="0 0 24 24" version="1.1" xmlns="http://www.w3.org/2000/svg" xmlns:xlink="http://www.w3.org/1999/xlink">
    <title>Public/ic_delete_grey</title>
    <defs>
        <path d="M5.904,7.75 L6.97612901,18.4738834 C7.08893748,19.6019681 8.02211147,20.4662096 9.14848718,20.4990325 L9.21496269,20.5 L14.7842282,20.5 C15.9181898,20.5 16.8711231,19.6570911 17.0155686,18.5392856 L17.0231282,18.4732196 L17.9424161,9.2527383 L18.094,7.75 L19.602,7.75 L19.4349078,9.40262938 L18.5157282,18.6220326 C18.3272847,20.512127 16.7570268,21.9581787 14.8666184,21.9991088 L14.7842282,22 L9.21496269,22 C7.31591715,22 5.72142703,20.5815579 5.49265599,18.7050136 L5.48357322,18.6231389 L4.396,7.75 L5.904,7.75 Z M10.25,11.75 C10.6642136,11.75 11,12.0857864 11,12.5 L11,18.5 C11,18.9142136 10.6642136,19.25 10.25,19.25 C9.83578644,19.25 9.5,18.9142136 9.5,18.5 L9.5,12.5 C9.5,12.0857864 9.83578644,11.75 10.25,11.75 Z M13.75,11.75 C14.1642136,11.75 14.5,12.0857864 14.5,12.5 L14.5,18.5 C14.5,18.9142136 14.1642136,19.25 13.75,19.25 C13.3357864,19.25 13,18.9142136 13,18.5 L13,12.5 C13,12.0857864 13.3357864,11.75 13.75,11.75 Z M12,2 C13.7692836,2 15.2083571,3.41379796 15.2491124,5.17328595 L15.25,5.25 L20.75,5.25 C21.1642136,5.25 21.5,5.58578644 21.5,6 C21.5,6.39942022 21.18777,6.72591522 20.7940682,6.74872683 L20.75,6.75 L14.5,6.75 C14.1005798,6.75 13.7740848,6.43777001 13.7512732,6.0440682 L13.75,6 L13.75,5.25 C13.75,4.28350169 12.9664983,3.5 12,3.5 C11.0536371,3.5 10.2827253,4.25119585 10.2510148,5.18983756 L10.25,5.25 L10.25,6 C10.25,6.39942022 9.93777001,6.72591522 9.5440682,6.74872683 L9.5,6.75 L3.25,6.75 C2.83578644,6.75 2.5,6.41421356 2.5,6 C2.5,5.60057978 2.81222999,5.27408478 3.2059318,5.25127317 L3.25,5.25 L8.75,5.25 C8.75,3.45507456 10.2050746,2 12,2 Z" id="path-1"></path>
    </defs>
    <g id="Public/ic_delete" stroke="none" stroke-width="1" fill="none" fill-rule="evenodd">
        <rect id="矩形" x="0" y="0" width="24" height="24"></rect>
        <mask id="mask-2" fill="white">
            <use xlink:href="#path-1"></use>
        </mask>
        <use id="形状结合" fill="#808080" fill-rule="nonzero" xlink:href="#path-1"></use>
    </g>
</svg>