<?xml version="1.0" encoding="UTF-8"?>
<svg width="24px" height="24px" viewBox="0 0 24 24" version="1.1" xmlns="http://www.w3.org/2000/svg" xmlns:xlink="http://www.w3.org/1999/xlink">
    <title>ic_add_filled</title>
    <g id="ic_add_filled" stroke="none" stroke-width="1" fill="none" fill-rule="evenodd">
        <path d="M12,1.5 C12.8284271,1.5 13.5,2.17157288 13.5,3 L13.5,10.499 L21,10.5 C21.8284271,10.5 22.5,11.1715729 22.5,12 C22.5,12.8284271 21.8284271,13.5 21,13.5 L13.5,13.499 L13.5,21 C13.5,21.8284271 12.8284271,22.5 12,22.5 C11.1715729,22.5 10.5,21.8284271 10.5,21 L10.5,13.499 L3,13.5 C2.17157288,13.5 1.5,12.8284271 1.5,12 C1.5,11.1715729 2.17157288,10.5 3,10.5 L10.5,10.499 L10.5,3 C10.5,2.17157288 11.1715729,1.5 12,1.5 Z" id="形状结合" fill="#000000"></path>
    </g>
</svg>