<?xml version="1.0" encoding="UTF-8"?>
<svg viewBox="0 0 24 24" version="1.1" xmlns="http://www.w3.org/2000/svg" xmlns:xlink="http://www.w3.org/1999/xlink">
    <title>ic_clock_clock</title>
    <g id="ic_clock_clock" stroke="none" stroke-width="1" fill="none" fill-rule="evenodd">
        <circle id="椭圆形" fill="#182431" opacity="0.599768502" cx="12" cy="12" r="9"></circle>
        <rect id="矩形" fill="#FFFFFF" x="11.2521064" y="6.9993329" width="1.5" height="6" rx="0.75"></rect>
        <path d="M13.2351145,13.1760197 L16.2415294,16.1812456 C16.5344226,16.4741388 16.5344226,16.9490125 16.2415294,17.2419057 C15.9486362,17.534799 15.4737624,17.534799 15.1808692,17.2419057 L12.1751145,14.2360197 L13.2351145,13.1760197 Z" id="形状结合" fill="#FFFFFF"></path>
        <rect id="矩形" fill="#182431" opacity="0.400000006" transform="translate(5.000000, 3.750000) rotate(-45.000000) translate(-5.000000, -3.750000) " x="3" y="3" width="4" height="1.5" rx="0.75"></rect>
        <rect id="矩形备份-2" fill="#182431" opacity="0.400000006" transform="translate(19.000000, 3.750000) scale(-1, 1) rotate(-45.000000) translate(-19.000000, -3.750000) " x="17" y="3" width="4" height="1.5" rx="0.75"></rect>
        <path d="M7.19703627,19.612654 L5.64644661,21.1642136 C5.35355339,21.4571068 4.87867966,21.4571068 4.58578644,21.1642136 C4.29289322,20.8713203 4.29289322,20.3964466 4.58578644,20.1035534 L5.9903726,18.6996904 C6.36550388,19.0364081 6.76907288,19.342077 7.19703627,19.612654 Z M18.0096497,18.6996704 L19.4142136,20.1035534 C19.7071068,20.3964466 19.7071068,20.8713203 19.4142136,21.1642136 C19.147947,21.4304801 18.7312833,21.4546862 18.4376718,21.2368317 L18.3535534,21.1642136 L16.8029637,19.612654 C17.2309356,19.3420717 17.6345121,19.036396 18.0096497,18.6996704 Z" id="形状结合" fill="#182431" opacity="0.400000006"></path>
    </g>
</svg>