<?xml version="1.0" encoding="UTF-8"?>
<svg viewBox="0 0 24 24" version="1.1" xmlns="http://www.w3.org/2000/svg" xmlns:xlink="http://www.w3.org/1999/xlink">
    <title>ic_clock_sound</title>
    <g id="ic_clock_sound" stroke="none" stroke-width="1" fill="none" fill-rule="evenodd">
        <path d="M14,21 C14,22.1045695 13.1045695,23 12,23 C10.8954305,23 10,22.1045695 10,21 L10,21 Z M12,1 C13.0175657,1 13.8576415,1.75992501 13.9836689,2.74321676 C17.0233489,3.60423168 19.2511544,6.40108522 19.2511544,9.7182706 L19.2511544,9.7182706 L19.251,16.2 L21.1003258,18.7907423 L21.17943,19.0207035 C21.2849547,19.348324 21.253528,19.4298732 21.0045517,19.7478796 L21.0045517,19.7478796 L20.9232517,19.8508578 L20.7162963,19.9546648 L20.5989005,19.992263 L3.52057779,19.992263 C3.48125325,19.9809209 3.44455034,19.9703349 3.41024388,19.9602799 L3.41024388,19.9602799 L3.23136105,19.9045197 C2.97514711,19.8162003 2.91354125,19.7359395 2.8213583,19.4385521 L2.8213583,19.4385521 L2.76057779,19.232263 L2.7963154,19.0035071 L2.8339136,18.8861113 L4.751,16.199 L4.7511544,9.7182706 C4.7511544,6.40230047 6.97732786,3.606281 10.0166646,2.74322238 C10.1423585,1.75992501 10.9824343,1 12,1 Z M12.0011544,3.9682706 C8.82551709,3.9682706 6.2511544,6.54263329 6.2511544,9.7182706 L6.2511544,9.7182706 L6.2511544,16.6803542 L4.957,18.492 L19.044,18.492 L17.7511544,16.6803542 L17.7511544,9.7182706 C17.7511544,6.54263329 15.1767917,3.9682706 12.0011544,3.9682706 Z" id="形状结合" fill="#182431" fill-rule="nonzero"></path>
    </g>
</svg>