<?xml version="1.0" encoding="UTF-8"?>
<svg viewBox="0 0 24 24" version="1.1" xmlns="http://www.w3.org/2000/svg" xmlns:xlink="http://www.w3.org/1999/xlink">
    <title>ic_clock_refresh备份</title>
    <g id="ic_clock_refresh备份" stroke="none" stroke-width="1" fill="none" fill-rule="evenodd">
        <path d="M12,1.25 C17.9370611,1.25 22.75,6.06293894 22.75,12 C22.75,17.9370611 17.9370611,22.75 12,22.75 C8.96678638,22.75 6.13440876,21.4862009 4.11314303,19.3048591 C3.83161018,19.00103 3.84968486,18.5265004 4.15351397,18.2449675 C4.45734308,17.9634347 4.93187271,17.9815093 5.21340557,18.2853385 C6.95368502,20.163441 9.388839,21.25 12,21.25 C17.1086339,21.25 21.25,17.1086339 21.25,12 C21.25,6.89136606 17.1086339,2.75 12,2.75 C6.98401229,2.75 2.90052734,6.74251889 2.75406719,11.7230346 L3.55671753,11.7238562 C4.0142452,11.7238562 4.38514466,12.0947557 4.38514466,12.5522834 C4.38514466,12.7719959 4.29786419,12.9827096 4.14250397,13.1380698 L2.77908784,14.5028343 C2.73691152,14.55321 2.68802765,14.5982113 2.63343703,14.6363204 L2.70508223,14.5754915 C2.56378302,14.7167908 2.3752636,14.7820902 2.19032009,14.7713899 C1.84683261,14.7647889 1.54152462,14.5220636 1.46963129,14.1717605 C1.32399792,13.4621561 1.25,12.7356162 1.25,12 C1.25,6.06293894 6.06293894,1.25 12,1.25 Z" id="形状结合" fill="#182431"></path>
    </g>
</svg>