<?xml version="1.0" encoding="UTF-8"?>
<svg viewBox="0 0 24 24" version="1.1" xmlns="http://www.w3.org/2000/svg" xmlns:xlink="http://www.w3.org/1999/xlink">
    <title>ic_clock_second chronograph_click</title>
    <g id="ic_clock_second-chronograph_click" stroke="none" stroke-width="1" fill="none" fill-rule="evenodd">
        <circle id="椭圆形" fill="#007DFF" cx="12" cy="12" r="10"></circle>
        <path d="M11.9991864,3.75179547 C16.5555356,3.75179547 20.2491864,7.44544629 20.2491864,12.0017955 C20.2491864,16.5581447 16.5555356,20.2517955 11.9991864,20.2517955 C7.4428372,20.2517955 3.74918638,16.5581447 3.74918638,12.0017955 C3.74918638,9.85621358 4.57271379,7.83806599 6.02238446,6.31491786 C6.30795119,6.014877 6.78267994,6.00314341 7.0827208,6.28871014 C7.38276166,6.57427687 7.39449526,7.04900562 7.10892852,7.34904648 C5.92210277,8.59602723 5.24918638,10.2450854 5.24918638,12.0017955 C5.24918638,15.7297175 8.27126432,18.7517955 11.9991864,18.7517955 C15.7271084,18.7517955 18.7491864,15.7297175 18.7491864,12.0017955 C18.7491864,8.52865081 16.1260688,5.66816808 12.7528887,5.29340236 L12.7527018,7.00447198 C12.7527018,7.41868554 12.4169153,7.75447198 12.0027018,7.75447198 C11.5884882,7.75447198 11.2527018,7.41868554 11.2527018,7.00447198 L11.2505017,4.54658544 C11.2496289,4.53176702 11.2491864,4.51683293 11.2491864,4.50179547 C11.2491864,4.08758191 11.5849728,3.75179547 11.9991864,3.75179547 Z" id="形状结合" fill="#FFFFFF" fill-rule="nonzero"></path>
        <path d="M9.45765847,9.11816128 L9.86730104,13.1255448 C9.91801557,13.6216666 9.55694165,14.064965 9.06081986,14.1156796 C9.03031028,14.1187983 8.99966163,14.1203607 8.96899306,14.1203607 C8.46807585,14.1203607 8.06200221,13.7142871 8.06200221,13.2133699 C8.06200221,13.1838965 8.06343885,13.1544405 8.06630703,13.125107 L8.4578833,9.12036073 C8.48488383,8.84421971 8.73062862,8.64225143 9.00676965,8.66925196 C9.24474425,8.69252066 9.43334294,8.88029136 9.45765847,9.11816128 Z" id="三角形" fill="#FFFFFF" transform="translate(8.968993, 9.120361) rotate(-45.000000) translate(-8.968993, -9.120361) "></path>
    </g>
</svg>